<svg xmlns="http://www.w3.org/2000/svg" width="1206.411" height="655" viewBox="0 0 1206.411 655">
  <g id="Group_2" data-name="Group 2" transform="translate(-1923.535 -1118)">
    <ellipse id="Ellipse_1" data-name="Ellipse 1" cx="253.5" cy="254" rx="253.5" ry="254" transform="translate(2273 1265)" fill="#acd1e9"/>
    <path id="Ellipse_1_-_Outline" data-name="Ellipse 1 - Outline" d="M253.5,10C119.234,10,10,119.458,10,254S119.234,498,253.5,498,497,388.542,497,254,387.766,10,253.5,10m0-10C393.5,0,507,113.72,507,254S393.5,508,253.5,508,0,394.28,0,254,113.5,0,253.5,0Z" transform="translate(2273 1265)" fill="#acd1e9"/>
    <path id="Polygon_1" data-name="Polygon 1" d="M270.01,152.7c39.736-68.183,138.244-68.183,177.98,0L627.747,461.137C667.765,529.8,618.233,616,538.757,616H179.243c-79.476,0-129.008-86.2-88.99-154.863Z" transform="translate(2168 1118)" fill="#e9f6ff"/>
    <path id="Polygon_1_-_Outline" data-name="Polygon 1 - Outline" d="M359,111.559a92.1,92.1,0,0,0-80.35,46.172L98.893,466.172A93,93,0,0,0,179.243,606H538.757a93,93,0,0,0,80.35-139.828L439.35,157.731A92.1,92.1,0,0,0,359,111.559m0-10c34.561,0,69.122,17.046,88.99,51.137L627.747,461.137C667.765,529.8,618.233,616,538.757,616H179.243c-79.476,0-129.008-86.2-88.99-154.863L270.01,152.7C289.878,118.6,324.439,101.559,359,101.559Z" transform="translate(2168 1118)" fill="rgba(112,112,112,0.05)"/>
    <path id="Path_2" data-name="Path 2" d="M1607.284,1234.391c-26.626,0-51.359-4.627-73.08-15.245-58.045-28.375-87.048-96.4-86.2-202.186l10,.08c-.811,101.6,26.3,166.58,80.592,193.121,20.083,9.818,43.142,14.117,68.074,14.12,173.841.022,440.022-208.785,443.075-211.2l6.205,7.842C2043.383,1030.862,1783.844,1234.387,1607.284,1234.391Z" transform="translate(1074 502)" fill="#e91717"/>
    <path id="Path_3" data-name="Path 3" d="M1898.543,1234.391c-176.562.024-436.1-203.529-448.663-213.47l6.205-7.842c3.054,2.416,269.233,211.194,443.075,211.2,24.945,0,47.981-4.3,68.074-14.12,54.288-26.541,81.4-91.516,80.592-193.121l10-.08c.844,105.786-28.159,173.811-86.2,202.186C1949.912,1229.759,1925.155,1234.388,1898.543,1234.391Z" transform="translate(473.656 504.703)" fill="#e91717"/>
  </g>
</svg>
